<?xml version="1.0" encoding="utf-8"?>
<!-- Generator: Adobe Illustrator 25.0.1, SVG Export Plug-In . SVG Version: 6.00 Build 0)  -->
<svg version="1.1" id="katman_1" xmlns="http://www.w3.org/2000/svg" xmlns:xlink="http://www.w3.org/1999/xlink" x="0px" y="0px"
	 viewBox="0 0 3200 2029.4" style="enable-background:new 0 0 3200 2029.4;" xml:space="preserve">
<style type="text/css">
	.st0{fill:#FFFFFF; fill-rule:evenodd;clip-rule:evenodd;}
</style>
<g>
	<path class="st0" d="M2598.6,1676.2v-9.2h5.7c3.1,0,7.3,0.3,7.3,4.3c0,4.2-2.2,4.9-5.8,4.9L2598.6,1676.2L2598.6,1676.2z
		 M2598.6,1682.7h3.9l8.8,16.1h9.6l-9.8-16.7c5.1-0.4,9.2-2.9,9.2-9.9c0-8.7-5.8-11.6-15.7-11.6h-14.3v38.2h8.1V1682.7
		L2598.6,1682.7z M2640.1,1679.7c0-22.4-16.8-35.5-35.6-35.5c-18.9,0-35.7,13.1-35.7,35.5c0,22.5,16.8,35.5,35.7,35.5
		C2623.3,1715.2,2640.1,1702.2,2640.1,1679.7z M2629.9,1679.7c0,16.3-11.6,27.3-25.4,27.3v-0.1c-14.1,0.1-25.5-10.9-25.5-27.3
		c0-16.3,11.4-27.2,25.5-27.2C2618.3,1652.5,2629.9,1663.4,2629.9,1679.7L2629.9,1679.7z M1351.8,534.4
		c132.9,0,211.8,103.4,211.8,103.4L1455.5,729c-48.6-80.9-64.8-116.6-145.6-126.4v230.1c19.8,6.6,40.5,9.9,61.3,9.8
		c157.7,0,304.8-204.2,304.8-204.2s-136.2-184.8-343.7-178.4c-7.6,0.3-15,0.7-22.4,1.2v75.8C1323.8,535.3,1337.8,534.5,1351.8,534.4
		z"/>
	<path class="st0" d="M1310,286.3v113.3c7.5-0.6,14.9-1,22.4-1.3c288.6-9.7,476.6,236.7,476.6,236.7s-216,262.7-441,262.7
		c-19.5,0-38.9-1.7-58.1-5.1v70.1c15.5,2,31.6,3.1,48.3,3.1c209.4,0,360.8-107,507.4-233.5c24.3,19.5,123.8,66.8,144.3,87.5
		c-139.4,116.8-464.3,210.8-648.4,210.8c-17.8,0-34.9-1.1-51.6-2.6v98.5h795.8V286.3H1310L1310,286.3z M1165.3,668.5
		c0,0,63.3-75.7,144.4-66c0.1,0,0.2,0.1,0.3,0.1v-65.7c-154.4,16.7-247.4,119.7-247.4,119.7s53.8,201.3,247.4,235.8v-59.8
		C1200.7,796,1165.3,668.5,1165.3,668.5z"/>
	<path class="st0" d="M966,647.9c0,0,114.8-169.4,344-186.8v-61.5C1056.1,420,836.3,634.9,836.3,634.9s124.5,359.9,473.7,392.9
		v-65.3C1053.7,930.3,966,647.9,966,647.9L966,647.9z M776.1,1645.5c-3.2,6.4-7.2,12-7.2,15.9c0,6.4,4,9.6,8.8,9.6
		c19.9,0,62.1-51.8,67.7-51.8c4.8,0,7.2,3.2,7.2,6.4c0,16.7-68.5,88.4-122.6,88.4c-14.4,0-19.9-4.8-19.9-13.5
		c0-8,5.6-21.5,11.2-34.2l90.8-193.5c6.4-13.5,8-23.9,8-31.9c0-12.7-7.2-21.5-18.3-21.5c-28.7,0-56.6,32.7-148.1,180.8
		c-16.8,27.1-31.1,51.7-46.2,86c-7.9,17.5-13.5,27.9-26.3,27.9c-13.5,0-19.1-4.8-19.1-14.3c0-7.2,5.6-19.9,8-26.3l75.7-202.3
		c4-11.1,8-21.5,8-27.1c0-6.4-4.8-10.3-12-10.3c-20.7,0-58.1,58.9-66.1,58.9c-3.5,0-6.3-2.7-6.4-6.2c0-0.1,0-0.1,0-0.2
		c0-8.7,9.6-18.3,14.3-25.5c11.2-15.9,58.1-68.5,89.2-68.5c19.1,0,24.7,12,24.7,33.4c0,31.1-47.8,132.2-47.8,141c0,1.6,0.8,4,1.6,4
		c2.4,0,5.6-4.8,9.5-11.2c14.4-23.1,84.4-167.2,158.5-167.2c30.2,0,48.5,16,48.5,43.8c0,19.9-11.9,44.6-20.7,62.9L776.1,1645.5
		L776.1,1645.5z M1199.9,1436.2c0.5-1.5,1-4,1-6.1c0-15.2-26.8-13.6-41.5-17.7c-4.1-1-7.1-3.5-7.1-6.6c0-8.1,5.6-9.6,8.6-9.6
		c17.7,0,33.9,2,53.2,2c15.2,0,42-2,47.1-2c4.5,0,7.6,4,7.6,8.6c0,3.5-0.5,7.1-4.1,7.6c-27.3,4.1-29.8,9.6-47.1,51.7l-101.3,248.1
		c-0.9,2.5-3.4,4.2-6.1,4c-4.1,0-5.6-4-7.1-7.1l-117.5-284c-4.5-9.1-15.2-11.2-24.8-12.7c-9.1-1.5-17.7-2-17.7-10.1
		c0-4.6,9.6-6.1,12.7-6.1c19.2,0,38.5,2,57.7,2c16.2,0,32.9-2,49.1-2c3.6,0,14.7,1,14.7,6.6c0,8.6-10.6,9.6-20.2,9.6
		c-10.1,0-20.8-0.5-20.8,10.1c0,1.5,0.5,3,1,4.5l51.6,130.1c25.8,65.3,31.4,72.4,32.9,72.4c2.5,0,7.1-0.5,9.1-5.6L1199.9,1436.2
		L1199.9,1436.2z M1433.8,1674.7c0,13.7,11.6,16.2,17.2,17.2c16.2,3,27.3,3,27.3,10.1c0,5.6-9.1,6.1-18.7,6.1c-13.1,0-23.7-2-49.6-2
		c-24.8,0-39,2-51.7,2c-11.6,0-18.7-1.5-18.7-7.6c0-6.6,3-6.1,25.8-8.6c9.1-1,24.8-3.5,24.8-22.3v-235.9c0-16.2-5.6-18.7-20.3-21.3
		c-14.7-3-18.8-2-18.8-9.1c0-7.1,7.6-7.1,13.7-7.1c15.7,0,23.8,2,47.6,2c20.3,0,30.4-2,45.6-2c11.2,0,22.8,0,22.8,6.1
		c0,9.1-9.1,7.6-32.9,10.1c-13.7,1.5-14.2,16.7-14.2,29.9V1674.7L1433.8,1674.7z M1620.6,1706.1c-14.7,0-33.4,2-45.6,2
		c-2.5,0-9,0-9-5.1c0-4.1,3.5-8.6,18.7-11.1c11.1-2,22.7-3.5,22.7-32.9v-238c0-9.6-21.3-8.6-34.4-9.6c-11.7-1-15.2-1-15.2-6.6
		c0-8.6,13.6-8.6,19.7-8.6h46.1c24.8,0,48.6-3,81-3c106.3,0,192.4,52.6,192.4,174.7c0,76-69.9,138.2-157,138.2H1620.6L1620.6,1706.1
		z M1651,1642.8c0,35.4,31.9,51.1,64.8,51.1c39.5,0,133.7-32.9,133.7-135.7c0-103.8-93.1-149.8-155.9-149.8
		c-41.5,0-42.6,9.1-42.6,16.2L1651,1642.8L1651,1642.8z M2069.3,1674.7c0,13.7,11.6,16.2,17.2,17.2c16.2,3,27.4,3,27.4,10.1
		c0,5.6-9.1,6.1-18.7,6.1c-13.2,0-23.8-2-49.6-2c-24.9,0-39,2-51.7,2c-11.6,0-18.7-1.5-18.7-7.6c0-6.6,3.1-6.1,25.8-8.6
		c9.1-1,24.8-3.5,24.8-22.3v-235.9c0-16.2-5.6-18.7-20.3-21.3c-14.7-3-18.7-2-18.7-9.1c0-7.1,7.6-7.1,13.7-7.1c15.7,0,23.8,2,47.6,2
		c20.2,0,30.4-2,45.6-2c11.1,0,22.8,0,22.8,6.1c0,9.1-9.1,7.6-32.9,10.1c-13.7,1.5-14.2,16.7-14.2,29.9L2069.3,1674.7L2069.3,1674.7
		L2069.3,1674.7z M2392.3,1592.9c-4.1-12.7-6-12.7-47.6-13.2c-34.4-0.5-42.5,1.5-44.5,5.6c-12.2,24.8-34.6,85.8-34.6,91.4
		c0,10.1,10.6,14.2,14.7,15.2c15.7,4,25.8,6.1,25.8,10.1c0,6.1-8.1,6.1-11.6,6.1c-13.7,0-29.9-2-44.5-2c-19.3,0-39,2-56.2,2
		c-4,0-6.1-1.5-6.1-6.1c0-6.6,13.2-5.6,25.8-10.1c10.2-3.5,12.7-7.1,15.2-12.7l127.6-284.3c1-1.9,3-3.1,5.1-3c3,0,5.6,1.5,6.1,3.5
		l95.6,260c9.6,27.9,19.8,34.4,26.4,36.5c13.7,4,23.3,2.5,23.3,10.1c0,5.1-4,6.1-10.1,6.1c-21.8,0-39-2-58.8-2
		c-18.7,0-36.4,2-56.2,2c-5,0-7.1-3.5-7.1-5.6c0-6.1,10.2-7.6,28.4-10.6c3-0.5,12.7-4.5,12.7-13.2c0-3.6-2-8.6-3.1-12.7
		L2392.3,1592.9z M2310.8,1545.8c-1,3.1-3,6.1-3,9.1c0,2.5,32.4,2.5,36.5,2.5c3,0,35.4,0,35.4-3c0-2.5-1-5.1-2.6-9.6l-26.8-80
		c-0.5-1-1-3-3-3c-1,0-2,1-2.6,2.5L2310.8,1545.8z"/>
</g>
</svg>
